<svg width="26" height="26" viewBox="0 0 26 26" fill="none" xmlns="http://www.w3.org/2000/svg">
<g clip-path="url(#clip0_18_135)">
<path d="M25.7345 13.0776L24.3786 11.7225C24.0911 9.1461 22.9371 6.74372 21.1057 4.90891C19.2744 3.0741 16.8741 1.91565 14.2983 1.62334L14.3673 1.55433C14.5372 1.38344 14.6325 1.15225 14.6325 0.911266C14.6325 0.670284 14.5372 0.439096 14.3673 0.268207C14.2833 0.182948 14.1832 0.115307 14.0728 0.0692517C13.9624 0.0231964 13.8439 -0.000346488 13.7242 3.8533e-06C13.5757 -0.000237607 13.4295 0.0361248 13.2984 0.105873H13.2419L11.7252 1.6202C9.14804 1.90675 6.74473 3.06058 4.90944 4.89245C3.07416 6.72431 1.91585 9.12547 1.62449 11.7021L1.55234 11.63C1.38013 11.4657 1.15044 11.3754 0.91247 11.3784C0.674496 11.3814 0.447151 11.4774 0.279121 11.646C0.111091 11.8145 0.0157334 12.0421 0.013469 12.2801C0.0112046 12.5181 0.102213 12.7475 0.267006 12.9192L1.619 14.2673C1.90462 16.8454 3.05815 19.2498 4.89027 21.0859C6.72239 22.922 9.12427 24.0807 11.7017 24.372L11.6374 24.4363C11.4643 24.6041 11.3648 24.8338 11.3608 25.075C11.3569 25.3161 11.4487 25.5489 11.6162 25.7224C11.6988 25.8085 11.7977 25.8773 11.9072 25.9249C12.0167 25.9724 12.1345 25.9977 12.2538 25.9992H12.2695C12.5125 25.9978 12.7451 25.9002 12.9165 25.7279L14.2692 24.3743C16.8462 24.087 19.2491 22.9328 21.0842 21.1009C22.9192 19.269 24.0775 16.8681 24.3692 14.2916L24.439 14.3614C24.5232 14.4464 24.6233 14.5138 24.7337 14.5598C24.8441 14.6058 24.9625 14.6296 25.0821 14.6296C25.2619 14.6295 25.4377 14.5762 25.5873 14.4765C25.737 14.3768 25.8538 14.235 25.9231 14.0691C25.9924 13.9031 26.0111 13.7204 25.9769 13.5439C25.9426 13.3673 25.8569 13.2048 25.7306 13.0769L25.7345 13.0776ZM12.8474 21.3449C12.6875 21.1848 12.4737 21.0901 12.2477 21.0792C12.0218 21.0683 11.7998 21.142 11.6252 21.2859C11.4506 21.4298 11.336 21.6336 11.3036 21.8575C11.2712 22.0814 11.3234 22.3094 11.45 22.4969C9.3742 22.1628 7.46518 21.1574 6.01534 19.6348C4.5655 18.1121 3.65479 16.1562 3.4227 14.0665L4.64609 12.8455C4.80506 12.6851 4.89874 12.4713 4.90891 12.2457C4.91909 12.02 4.84505 11.7987 4.70116 11.6246C4.55728 11.4505 4.35382 11.3361 4.13031 11.3036C3.90681 11.2711 3.67921 11.3229 3.49172 11.4488C3.82638 9.37303 4.83227 7.46417 6.35533 6.01463C7.87839 4.56508 9.83463 3.65477 11.9244 3.42312L13.1478 4.6465C13.3077 4.80663 13.5215 4.90136 13.7476 4.91218C13.9736 4.92299 14.1955 4.8491 14.37 4.70496C14.5444 4.56083 14.6588 4.3568 14.6908 4.1328C14.7228 3.90879 14.6701 3.6809 14.5429 3.4937C16.6177 3.82919 18.5254 4.83523 19.9742 6.35789C21.4229 7.88054 22.3328 9.83594 22.5647 11.9248L21.3507 13.1388C21.221 13.2635 21.1311 13.4239 21.0927 13.5997C21.0542 13.7755 21.0689 13.9587 21.1347 14.1262C21.2006 14.2936 21.3148 14.4378 21.4627 14.5402C21.6106 14.6427 21.7856 14.6989 21.9656 14.7018C22.1543 14.7096 22.3402 14.6544 22.4941 14.5449C22.1592 16.6192 21.1542 18.5267 19.6328 19.9759C18.1115 21.425 16.1573 22.3361 14.0693 22.5698L12.8474 21.3449Z" fill="#005AA9"/>
</g>
<defs>
<clipPath id="clip0_18_135">
<rect width="25.9945" height="26" fill="white" transform="translate(0.00274658)"/>
</clipPath>
</defs>
</svg>
