<svg width="27" height="26" viewBox="0 0 27 26" fill="none" xmlns="http://www.w3.org/2000/svg">
<g clip-path="url(#clip0_18_124)">
<path d="M17.8083 8.85842V0H9.52347V8.85842H0.666748V17.1416H9.52347V26H17.8083V17.1416H26.6659V8.85842H17.8083ZM24.9537 15.4311H17.5745C17.1822 15.4311 16.8059 15.5869 16.5285 15.8643C16.2511 16.1417 16.0953 16.518 16.0953 16.9103V24.2895H11.2357V16.9103C11.2357 16.5181 11.08 16.142 10.8027 15.8646C10.5255 15.5872 10.1495 15.4313 9.7573 15.4311H2.37896V10.5732H9.7573C10.1493 10.5725 10.5251 10.4164 10.8022 10.1391C11.0794 9.86183 11.2352 9.48597 11.2357 9.09394V1.71475H16.0953V9.09394C16.0957 9.48612 16.2517 9.86211 16.529 10.1394C16.8063 10.4167 17.1823 10.5727 17.5745 10.5732H24.9537V15.4311Z" fill="#005AA9"/>
</g>
<defs>
<clipPath id="clip0_18_124">
<rect width="26" height="26" fill="white" transform="translate(0.666748)"/>
</clipPath>
</defs>
</svg>
