<svg width="37" height="26" viewBox="0 0 37 26" fill="none" xmlns="http://www.w3.org/2000/svg">
<g clip-path="url(#clip0_18_113)">
<path d="M6.97243 7.60644C6.97747 6.18427 7.54461 4.82177 8.55016 3.81605C9.55572 2.81033 10.9181 2.24298 12.3403 2.2377C14.5031 2.2377 16.3368 4.08446 17.1945 5.91467L18.2088 8.07662L19.2223 5.91467C20.053 4.14367 21.9215 2.2377 24.0765 2.2377C25.4986 2.24275 26.8611 2.80988 27.8669 3.81544C28.8726 4.82099 29.4399 6.1834 29.4452 7.60557C29.4452 10.1193 28.329 11.946 26.6503 13.7153H29.581C30.9494 11.9737 31.6917 9.82217 31.6881 7.60731C31.6806 5.59191 30.8765 3.66122 29.4513 2.23619C28.0261 0.811151 26.0954 0.00733965 24.08 0C22.9139 0.0551854 21.7766 0.3806 20.7579 0.950566C19.7392 1.52053 18.8668 2.31945 18.2097 3.28428C17.5526 2.31919 16.6802 1.5201 15.6612 0.950108C14.6423 0.380119 13.5048 0.0548525 12.3386 0C10.3232 0.00734375 8.39243 0.811331 6.96749 2.2366C5.54254 3.66188 4.739 5.59279 4.73211 7.60818C4.70185 9.59233 5.26554 11.5402 6.35075 13.2016H9.15353C7.74913 11.6767 6.96961 9.67947 6.96982 7.60644H6.97243ZM23.7648 16.4153C21.7148 18.1173 19.8472 20.0277 18.1923 22.1158C16.5474 20.1057 14.7102 18.2609 12.7069 16.6077C11.7648 15.7823 10.8845 15.0083 10.107 14.2246H7.08823C8.34774 15.7048 9.73679 17.0697 11.2389 18.303C13.5123 20.1544 15.5452 22.283 17.2902 24.6391L18.2323 25.9956L19.1361 24.6321C20.8656 22.1896 22.9182 19.9928 25.238 18.1019C26.4751 17.0511 27.6478 15.9268 28.7495 14.7349H25.615C25.0052 15.304 24.3867 15.8636 23.7595 16.4136" fill="#005AA9"/>
<path d="M35.858 13.7161H20.5336L19.2276 9.15629C19.1961 9.0466 19.1289 8.95057 19.0367 8.88343C18.9444 8.81629 18.8324 8.78188 18.7184 8.78568C18.6043 8.78949 18.4948 8.83127 18.4072 8.90441C18.3197 8.97755 18.259 9.07784 18.235 9.18937L16.8584 15.5081L16.1549 13.542C16.1188 13.4426 16.0529 13.3566 15.9663 13.2959C15.8797 13.2351 15.7765 13.2025 15.6708 13.2024H0.808757C0.672512 13.2024 0.541847 13.2566 0.445507 13.3529C0.349167 13.4492 0.295044 13.5799 0.295044 13.7161C0.295044 13.8524 0.349167 13.9831 0.445507 14.0794C0.541847 14.1757 0.672512 14.2299 0.808757 14.2299H15.3094L16.4953 17.5385C16.5309 17.6382 16.5964 17.7244 16.6829 17.7854C16.7695 17.8463 16.8727 17.879 16.9785 17.879H17.0116C17.123 17.8717 17.229 17.8285 17.3136 17.7558C17.3983 17.6831 17.457 17.5848 17.4809 17.4758L18.8035 11.3983L19.6542 14.3683C19.6851 14.4756 19.7501 14.57 19.8393 14.6372C19.9285 14.7044 20.0371 14.7408 20.1488 14.741H35.858C35.927 14.7438 35.9959 14.7327 36.0606 14.7082C36.1252 14.6837 36.1843 14.6464 36.2342 14.5986C36.284 14.5507 36.3237 14.4933 36.3508 14.4297C36.3779 14.3661 36.3919 14.2977 36.3919 14.2286C36.3919 14.1594 36.3779 14.091 36.3508 14.0274C36.3237 13.9638 36.284 13.9064 36.2342 13.8585C36.1843 13.8107 36.1252 13.7734 36.0606 13.7489C35.9959 13.7244 35.927 13.7133 35.858 13.7161Z" fill="#005AA9"/>
</g>
<defs>
<clipPath id="clip0_18_113">
<rect width="36.0766" height="26" fill="white" transform="translate(0.295044)"/>
</clipPath>
</defs>
</svg>
