<svg width="30" height="30" viewBox="0 0 30 30" fill="none" xmlns="http://www.w3.org/2000/svg">
<path fill-rule="evenodd" clip-rule="evenodd" d="M24.6875 15C24.6875 14.4822 24.2678 14.0625 23.75 14.0625H6.25C5.73223 14.0625 5.3125 14.4822 5.3125 15C5.3125 15.5178 5.73223 15.9375 6.25 15.9375H23.75C24.2678 15.9375 24.6875 15.5178 24.6875 15Z" fill="#005AA9"/>
<path fill-rule="evenodd" clip-rule="evenodd" d="M24.6875 8.75C24.6875 8.23223 24.2678 7.8125 23.75 7.8125H6.25C5.73223 7.8125 5.3125 8.23223 5.3125 8.75C5.3125 9.26777 5.73223 9.6875 6.25 9.6875H23.75C24.2678 9.6875 24.6875 9.26777 24.6875 8.75Z" fill="#005AA9"/>
<path fill-rule="evenodd" clip-rule="evenodd" d="M24.6875 21.25C24.6875 20.7322 24.2678 20.3125 23.75 20.3125H6.25C5.73223 20.3125 5.3125 20.7322 5.3125 21.25C5.3125 21.7678 5.73223 22.1875 6.25 22.1875H23.75C24.2678 22.1875 24.6875 21.7678 24.6875 21.25Z" fill="#005AA9"/>
</svg>
