<svg width="27" height="26" viewBox="0 0 27 26" fill="none" xmlns="http://www.w3.org/2000/svg">
<g clip-path="url(#clip0_18_139)">
<path d="M13.6709 1.05934e-06C12.3051 -0.000615453 10.9525 0.267871 9.69051 0.790121C8.42848 1.31237 7.28171 2.07815 6.31571 3.04372C5.34971 4.00928 4.58341 5.15571 4.06059 6.4175C3.53777 7.6793 3.26868 9.03174 3.26868 10.3976V10.4041C3.26868 16.1459 13.6662 25.9991 13.6662 25.9991C13.6662 25.9991 24.0638 16.1431 24.0638 10.4041V10.3976C24.0633 7.64117 22.9684 4.99775 21.0198 3.04825C19.0712 1.09875 16.4283 0.00268132 13.6719 0.000939653L13.6709 1.05934e-06ZM20.1683 11.7023H14.9672V16.9006H12.3709V11.7023H7.17633V9.10408H12.3746V3.9039H14.9672V9.10315H20.1665L20.1683 11.7023Z" fill="#005AA9"/>
</g>
<defs>
<clipPath id="clip0_18_139">
<rect width="26" height="26" fill="white" transform="translate(0.666748)"/>
</clipPath>
</defs>
</svg>
