<svg width="27" height="26" viewBox="0 0 27 26" fill="none" xmlns="http://www.w3.org/2000/svg">
<g clip-path="url(#clip0_18_129)">
<path d="M13.0968 25.6796C13.1755 25.6796 13.2542 25.6914 13.3329 25.6914C13.4116 25.6914 13.4903 25.6812 13.569 25.6796C13.4903 25.6796 13.4116 25.6914 13.3329 25.6914C13.2542 25.6914 13.1755 25.6812 13.0968 25.6796ZM9.83155 12.451L8.43464 10.7857L8.40945 10.7605C8.33706 10.6883 8.2394 10.6471 8.13715 10.6456H7.82786C7.7925 10.6456 7.75748 10.6525 7.7248 10.666C7.69213 10.6795 7.66243 10.6993 7.63741 10.7243C7.60079 10.7602 7.5754 10.8059 7.56436 10.8559C7.55332 10.906 7.5571 10.9581 7.57523 11.0061L8.1403 12.5989C8.14621 12.6224 8.15016 12.6464 8.1521 12.6706V12.8461C8.06123 12.8862 7.97771 12.9413 7.90499 13.009L7.89948 13.0145C7.82897 13.0839 7.7888 13.1784 7.78772 13.2773C7.78923 13.3766 7.82964 13.4712 7.90026 13.541L7.90577 13.5465C7.98065 13.6153 8.06624 13.6713 8.15919 13.7125H8.15053V13.8935C8.14831 13.9162 8.1441 13.9386 8.13794 13.9604L7.57681 15.5557C7.55869 15.6038 7.55447 15.656 7.56463 15.7064C7.57479 15.7568 7.59892 15.8033 7.63426 15.8406C7.65953 15.8659 7.68961 15.8859 7.72272 15.8994C7.75583 15.9129 7.79131 15.9197 7.82707 15.9193H8.14187C8.2427 15.9162 8.33848 15.8745 8.40945 15.8028L8.42834 15.7839L9.81975 14.1155L10.0448 14.1462C10.8798 14.2477 11.8872 14.3162 12.9685 14.3437V15.473C12.9668 15.5011 12.9631 15.529 12.9575 15.5565L12.0871 18.6305C12.075 18.6715 12.0727 18.7148 12.0804 18.7568C12.0881 18.7989 12.1057 18.8386 12.1316 18.8726C12.1575 18.9066 12.191 18.9341 12.2295 18.9527C12.268 18.9714 12.3103 18.9807 12.3531 18.9799H13.0197C13.1088 18.9767 13.1933 18.9396 13.2558 18.876C13.2754 18.8518 13.292 18.8254 13.3054 18.7973L13.9641 17.5759H14.4363C14.5128 17.5751 14.586 17.5443 14.6401 17.4901C14.6942 17.4356 14.7249 17.3623 14.7259 17.2855V16.9502C14.7259 16.8787 14.6997 16.8096 14.6523 16.756C14.6049 16.7023 14.5396 16.6679 14.4685 16.6591L14.5598 16.4875H15.0627C15.1285 16.4854 15.1917 16.4613 15.2422 16.419L11.1411 12.318C10.7787 12.3442 10.4168 12.3783 10.0558 12.4203C9.97715 12.4305 9.90317 12.4392 9.83155 12.451ZM18.4846 14.3469H18.5216C19.1361 14.2947 19.7217 14.0632 20.2057 13.6811L20.2175 13.6708C20.225 13.6649 20.2321 13.6586 20.2388 13.6519C20.3176 13.5731 20.3736 13.4744 20.4009 13.3663C20.4071 13.3405 20.4098 13.314 20.4088 13.2876C20.4098 13.2612 20.4077 13.2347 20.4025 13.2089C20.3766 13.101 20.3222 13.0021 20.2451 12.9224C20.2373 12.9144 20.2292 12.9068 20.2207 12.8996C19.7332 12.5107 19.1414 12.2752 18.52 12.2228H18.5255C17.7724 12.1514 17.0149 12.1383 16.2597 12.1834H16.2401L15.7136 12.196L15.0588 10.988C15.1352 10.9874 15.2084 10.9569 15.2626 10.903C15.3173 10.8484 15.3486 10.7748 15.35 10.6976L15.3555 10.356C15.3555 10.2783 15.325 10.2036 15.2705 10.1482C15.2151 10.0959 15.1413 10.0676 15.0651 10.0695H14.5661L14.4693 9.89954C14.54 9.89078 14.6051 9.85669 14.6526 9.80358C14.7001 9.75046 14.7267 9.68194 14.7275 9.61071V9.28096C14.7281 9.20243 14.6975 9.12687 14.6425 9.07083C14.6154 9.04378 14.5833 9.02239 14.5479 9.00793C14.5125 8.99347 14.4745 8.98623 14.4363 8.98662H13.9775L13.3132 7.76127C13.299 7.73463 13.2813 7.71001 13.2605 7.68808C13.1948 7.62263 13.1061 7.5856 13.0134 7.58498H12.3555C12.3135 7.58445 12.272 7.59362 12.2342 7.61177C12.1963 7.62993 12.1632 7.65658 12.1374 7.68964C12.1116 7.7227 12.0937 7.76129 12.0853 7.80238C12.0768 7.84347 12.078 7.88597 12.0887 7.92654L12.9638 11.0124C12.97 11.0406 12.9742 11.0693 12.9764 11.0981V11.5326L15.8159 14.3728L16.2314 14.3831C16.9823 14.4296 17.7356 14.4175 18.4846 14.3469Z" fill="#005AA9"/>
<path d="M13.3329 0C9.90801 0.000978321 6.62196 1.3539 4.1892 3.76462C1.75644 6.17534 0.373665 9.44894 0.341516 12.8737C0.309366 16.2984 1.63044 19.5974 4.01752 22.0534C6.40459 24.5093 9.66466 25.9237 13.0889 25.989L13.1802 25.9929C13.2306 25.9929 13.281 26 13.3329 26C13.3836 26.0012 13.4344 25.9988 13.4848 25.9929L13.5753 25.989C16.9994 25.9237 20.2594 24.5095 22.6465 22.0537C25.0335 19.5979 26.3547 16.2991 26.3228 12.8745C26.2908 9.44986 24.9083 6.17629 22.4759 3.76544C20.0434 1.3546 16.7577 0.0013857 13.3329 0V0ZM13.3329 24.1443C11.2203 24.1473 9.15045 23.5486 7.36555 22.4184C5.58066 21.2882 4.15447 19.6731 3.25381 17.7621C2.35315 15.8511 2.01525 13.7231 2.27964 11.6271C2.54403 9.53102 3.39977 7.5536 4.74677 5.92608L11.1411 12.3204L15.2422 16.4215L20.4096 21.5897C18.42 23.2393 15.9174 24.1435 13.3329 24.1466V24.1443ZM21.7372 20.2943L15.8167 14.3737L12.9764 11.5334L6.04295 4.59999C8.16742 2.74727 10.9161 1.77023 13.7333 1.86636C16.5505 1.96249 19.2261 3.12463 21.2194 5.11786C23.2126 7.11109 24.3747 9.78674 24.4709 12.604C24.567 15.4212 23.59 18.1698 21.7372 20.2943Z" fill="#005AA9"/>
</g>
<defs>
<clipPath id="clip0_18_129">
<rect width="26" height="26" fill="white" transform="translate(0.333313)"/>
</clipPath>
</defs>
</svg>
