<svg width="42" height="42" viewBox="0 0 42 42" fill="none" xmlns="http://www.w3.org/2000/svg">
<rect width="42" height="42" rx="21" fill="#005AA9"/>
<path fill-rule="evenodd" clip-rule="evenodd" d="M23.3851 24.4457C20.7348 26.5684 16.8554 26.4013 14.3986 23.9445C11.7625 21.3085 11.7625 17.0346 14.3986 14.3986C17.0346 11.7626 21.3085 11.7626 23.9445 14.3986C26.4013 16.8554 26.5684 20.7348 24.4457 23.3851L29.6013 28.5407C29.8942 28.8336 29.8942 29.3085 29.6013 29.6014C29.3085 29.8943 28.8336 29.8943 28.5407 29.6014L23.3851 24.4457ZM15.4592 22.8839C13.409 20.8336 13.409 17.5095 15.4592 15.4593C17.5095 13.409 20.8336 13.409 22.8839 15.4593C24.9326 17.508 24.9341 20.8287 22.8884 22.8794C22.8868 22.8809 22.8853 22.8823 22.8838 22.8839C22.8823 22.8854 22.8808 22.8869 22.8793 22.8884C20.8287 24.9341 17.508 24.9326 15.4592 22.8839Z" fill="white"/>
</svg>
