<svg width="42" height="42" viewBox="0 0 42 42" fill="none" xmlns="http://www.w3.org/2000/svg">
<rect width="42" height="42" rx="21" fill="#005AA9"/>
<path fill-rule="evenodd" clip-rule="evenodd" d="M13.5918 24.3042C11.344 18.7867 15.4031 12.75 21.3609 12.75H21.6823C26.1379 12.75 29.7499 16.362 29.7499 20.8176C29.7499 25.7785 25.7284 29.8 20.7676 29.8H12.9473C12.6291 29.8 12.3454 29.5991 12.2398 29.2989C12.1342 28.9987 12.2295 28.6645 12.4777 28.4652L14.4492 26.8819C14.5354 26.8127 14.5659 26.6951 14.5242 26.5927L13.5918 24.3042ZM21.3609 14.25C16.4683 14.25 13.135 19.2074 14.981 23.7383L15.9133 26.0268C16.2053 26.7435 15.9918 27.5669 15.3884 28.0515L15.079 28.3H20.7676C24.9 28.3 28.2499 24.95 28.2499 20.8176C28.2499 17.1904 25.3095 14.25 21.6823 14.25H21.3609Z" fill="white"/>
</svg>
