<svg width="30" height="26" viewBox="0 0 30 26" fill="none" xmlns="http://www.w3.org/2000/svg">
<g clip-path="url(#clip0_18_119)">
<path d="M23.4006 5.22513C22.8957 3.69873 21.9209 2.37121 20.6155 1.43266C19.3102 0.4941 17.7414 -0.00735869 16.1337 8.1613e-05H16.1197C14.6212 -0.00448148 13.1544 0.431233 11.9014 1.25312C10.6484 2.075 9.66439 3.24684 9.07164 4.62312C7.79197 4.75533 6.58902 5.29656 5.64128 6.16651C4.69354 7.03647 4.05152 8.18879 3.81048 9.45248C3.12193 9.65307 2.49601 10.0262 1.99207 10.5364C1.48812 11.0467 1.12283 11.6772 0.930845 12.3682H0.779053V13.5818C0.78336 14.7386 1.23351 15.8492 2.03584 16.6826C2.83817 17.5159 3.93091 18.0079 5.08672 18.056L5.26135 18.0619H22.9459L23.4816 18.0575L23.8184 18.0184V17.9787C25.3317 17.7457 26.7107 16.9757 27.7029 15.8095C28.6951 14.6433 29.2342 13.1588 29.2217 11.6277C29.2178 10.029 28.6199 8.48875 27.5442 7.30603C26.4685 6.12331 24.9917 5.38248 23.4006 5.22735V5.22513ZM22.929 16.306L5.25914 16.3104C4.53714 16.3069 3.8457 16.0186 3.33516 15.508C2.82462 14.9975 2.53626 14.306 2.53277 13.584V13.4101L2.5394 13.3099C2.58113 12.742 2.81994 12.2066 3.21456 11.7961C3.60918 11.3856 4.13481 11.1259 4.70061 11.0618L5.42715 10.9785L5.47504 10.252C5.55359 9.19308 6.02904 8.20289 6.80627 7.47948C7.58351 6.75607 8.60523 6.35279 9.66702 6.35032H10.3081L10.5115 5.76083C10.914 4.59228 11.671 3.57842 12.6771 2.86055C13.6832 2.14267 14.8882 1.75656 16.1241 1.75601H16.1352C17.4641 1.75288 18.7551 2.1983 19.7994 3.02018C20.8437 3.84207 21.58 4.99231 21.8893 6.28474L22.0529 6.94791H22.7949C24.0358 6.92963 25.2332 7.40508 26.1236 8.26965C27.014 9.13422 27.5245 10.3171 27.5428 11.5581C27.5611 12.799 27.0856 13.9964 26.2211 14.8868C25.3565 15.7772 24.1736 16.2877 22.9327 16.306H22.929ZM8.55511 18.8894C8.50402 18.8413 8.44396 18.8037 8.37835 18.7789C8.31274 18.754 8.24287 18.7423 8.17273 18.7444C8.1026 18.7465 8.03356 18.7624 7.96958 18.7912C7.9056 18.82 7.84791 18.8612 7.79983 18.9123L5.92379 20.9062C5.83194 21.0105 5.78414 21.1463 5.79047 21.2851C5.79679 21.424 5.85673 21.5549 5.95768 21.6504C6.05863 21.7459 6.1927 21.7985 6.33165 21.7972C6.47061 21.7958 6.60361 21.7405 6.70265 21.643L8.57942 19.6484C8.67634 19.5449 8.72828 19.4072 8.72386 19.2655C8.71944 19.1238 8.65902 18.9896 8.55584 18.8924L8.55511 18.8894ZM4.8045 23.1042L2.9292 25.0989C2.8794 25.1498 2.84024 25.2101 2.81403 25.2762C2.78783 25.3424 2.77509 25.4132 2.77657 25.4843C2.77805 25.5555 2.79373 25.6257 2.82267 25.6907C2.85161 25.7557 2.89324 25.8143 2.94512 25.8631C2.997 25.9118 3.05808 25.9497 3.12479 25.9745C3.19151 25.9994 3.2625 26.0107 3.33363 26.0077C3.40475 26.0047 3.47457 25.9876 3.53899 25.9573C3.60341 25.9271 3.66114 25.8842 3.7088 25.8313L5.58483 23.8367C5.68196 23.7332 5.734 23.5954 5.72951 23.4535C5.72502 23.3117 5.66436 23.1774 5.56089 23.0803C5.45741 22.9832 5.31958 22.9311 5.17773 22.9356C5.03589 22.9401 4.90163 23.0008 4.8045 23.1042ZM10.7959 18.9123L8.92059 20.9069C8.87078 20.9578 8.83163 21.0181 8.80542 21.0843C8.77921 21.1504 8.76647 21.2212 8.76796 21.2924C8.76944 21.3635 8.78511 21.4337 8.81405 21.4987C8.84299 21.5638 8.88462 21.6224 8.9365 21.6711C8.98838 21.7198 9.04947 21.7577 9.11618 21.7826C9.18289 21.8074 9.25389 21.8187 9.32501 21.8157C9.39613 21.8128 9.46595 21.7956 9.53037 21.7654C9.59479 21.7351 9.65252 21.6922 9.70018 21.6394L11.5755 19.6447C11.6693 19.5407 11.7186 19.404 11.7128 19.264C11.707 19.124 11.6464 18.9919 11.5442 18.8961C11.442 18.8002 11.3063 18.7483 11.1662 18.7515C11.0262 18.7547 10.8929 18.8126 10.7952 18.913L10.7959 18.9123ZM7.79983 23.1035L5.92379 25.0982C5.87398 25.149 5.83483 25.2093 5.80862 25.2755C5.78241 25.3417 5.76968 25.4124 5.77116 25.4836C5.77264 25.5548 5.78831 25.6249 5.81725 25.69C5.8462 25.755 5.88783 25.8136 5.9397 25.8623C5.99158 25.9111 6.05267 25.949 6.11938 25.9738C6.18609 25.9986 6.25709 26.0099 6.32821 26.007C6.39934 26.004 6.46915 25.9869 6.53358 25.9566C6.598 25.9263 6.65573 25.8835 6.70338 25.8306L8.57942 23.8359C8.67312 23.732 8.72235 23.5954 8.71654 23.4556C8.71072 23.3157 8.65034 23.1837 8.54834 23.0879C8.44633 22.9921 8.31083 22.94 8.1709 22.9429C8.03097 22.9459 7.89775 23.0035 7.79983 23.1035ZM13.7875 18.9123L11.9122 20.9062C11.8208 21.0106 11.7735 21.1465 11.7802 21.2851C11.787 21.4238 11.8473 21.5544 11.9485 21.6495C12.0496 21.7445 12.1838 21.7966 12.3226 21.7947C12.4614 21.7928 12.594 21.7371 12.6926 21.6394L14.5679 19.6447C14.6593 19.5402 14.7066 19.4044 14.6999 19.2657C14.6931 19.1271 14.6328 18.9965 14.5316 18.9014C14.4305 18.8064 14.2963 18.7543 14.1575 18.7562C14.0187 18.7581 13.8861 18.8138 13.7875 18.9115V18.9123ZM10.7959 23.1042L8.92059 25.0982C8.87078 25.149 8.83163 25.2093 8.80542 25.2755C8.77921 25.3417 8.76647 25.4124 8.76796 25.4836C8.76944 25.5548 8.78511 25.6249 8.81405 25.69C8.84299 25.755 8.88462 25.8136 8.9365 25.8623C8.98838 25.9111 9.04947 25.949 9.11618 25.9738C9.18289 25.9986 9.25389 26.0099 9.32501 26.007C9.39613 26.004 9.46595 25.9869 9.53037 25.9566C9.59479 25.9263 9.65252 25.8835 9.70018 25.8306L11.5755 23.8359C11.6665 23.7315 11.7134 23.5958 11.7064 23.4574C11.6993 23.3191 11.6389 23.1889 11.5378 23.0942C11.4367 22.9995 11.3028 22.9477 11.1643 22.9497C11.0258 22.9517 10.8935 23.0074 10.7952 23.105L10.7959 23.1042ZM17.5389 18.8894C17.4878 18.8413 17.4277 18.8037 17.3621 18.7789C17.2965 18.754 17.2266 18.7423 17.1565 18.7444C17.0864 18.7465 17.0173 18.7624 16.9533 18.7912C16.8894 18.82 16.8317 18.8612 16.7836 18.9123L14.9075 20.9062C14.8126 21.01 14.7622 21.1471 14.7673 21.2877C14.7724 21.4284 14.8326 21.5614 14.9349 21.6581C15.0372 21.7547 15.1734 21.8073 15.3141 21.8045C15.4548 21.8017 15.5888 21.7437 15.6871 21.643L17.5632 19.6484C17.6114 19.5972 17.649 19.5371 17.6738 19.4714C17.6987 19.4057 17.7104 19.3357 17.7082 19.2655C17.706 19.1952 17.69 19.1261 17.6611 19.0621C17.6321 18.9981 17.5909 18.9404 17.5396 18.8924L17.5389 18.8894ZM13.7875 23.1042L11.9122 25.0989C11.8626 25.1498 11.8236 25.2102 11.7976 25.2763C11.7715 25.3425 11.759 25.4132 11.7606 25.4843C11.7622 25.5554 11.7779 25.6255 11.8069 25.6904C11.8359 25.7553 11.8776 25.8138 11.9295 25.8625C11.9813 25.9111 12.0424 25.9489 12.1091 25.9737C12.1757 25.9985 12.2466 26.0097 12.3177 26.0067C12.3888 26.0038 12.4585 25.9867 12.5229 25.9564C12.5872 25.9262 12.6449 25.8834 12.6926 25.8306L14.5679 23.8359C14.616 23.7847 14.6535 23.7245 14.6783 23.6587C14.7031 23.593 14.7148 23.523 14.7125 23.4528C14.7103 23.3825 14.6943 23.3134 14.6653 23.2494C14.6364 23.1854 14.5951 23.1276 14.5439 23.0795C14.4927 23.0315 14.4325 22.9939 14.3667 22.9691C14.301 22.9443 14.231 22.9326 14.1608 22.9349C14.0905 22.9371 14.0214 22.9531 13.9574 22.9821C13.8933 23.011 13.8356 23.0523 13.7875 23.1035V23.1042ZM19.7767 18.9123L17.9014 20.9069C17.8516 20.9578 17.8124 21.0181 17.7862 21.0843C17.76 21.1504 17.7473 21.2212 17.7488 21.2924C17.7503 21.3635 17.7659 21.4337 17.7949 21.4987C17.8238 21.5638 17.8654 21.6224 17.9173 21.6711C17.9692 21.7198 18.0303 21.7577 18.097 21.7826C18.1637 21.8074 18.2347 21.8187 18.3058 21.8157C18.3769 21.8128 18.4468 21.7956 18.5112 21.7654C18.5756 21.7351 18.6333 21.6922 18.681 21.6394L20.5563 19.6447C20.6502 19.5407 20.6995 19.404 20.6936 19.264C20.6878 19.124 20.6272 18.9919 20.525 18.8961C20.4228 18.8002 20.2871 18.7483 20.147 18.7515C20.007 18.7547 19.8737 18.8126 19.776 18.913L19.7767 18.9123ZM16.7799 23.1035L14.9039 25.0982C14.8541 25.149 14.8149 25.2093 14.7887 25.2755C14.7625 25.3417 14.7498 25.4124 14.7512 25.4836C14.7527 25.5548 14.7684 25.6249 14.7973 25.69C14.8263 25.755 14.8679 25.8136 14.9198 25.8623C14.9717 25.9111 15.0327 25.949 15.0995 25.9738C15.1662 25.9986 15.2372 26.0099 15.3083 26.007C15.3794 26.004 15.4492 25.9869 15.5137 25.9566C15.5781 25.9263 15.6358 25.8835 15.6835 25.8306L17.5595 23.8359C17.6532 23.732 17.7024 23.5954 17.6966 23.4556C17.6908 23.3157 17.6304 23.1837 17.5284 23.0879C17.4264 22.9921 17.2909 22.94 17.151 22.9429C17.011 22.9459 16.8778 23.0035 16.7799 23.1035Z" fill="#005AA9"/>
</g>
<defs>
<clipPath id="clip0_18_119">
<rect width="28.4419" height="26" fill="white" transform="translate(0.779053)"/>
</clipPath>
</defs>
</svg>
